# xmcd
#
# Track frame offsets:
#	150
#	20051
#	42038
#	62265
#	85872
#	109323
#	126698
#	157524
#	184174
#	205012
#	226626
#	245714
#
# Disc length: 3581 seconds
#
# Revision: 2
# Processed by: cddbd v1.5.2PL0 Copyright (c) Steve Scherf et al.
# Submitted via: audiograbber 1.83.01
#
DISCID=940dfb0c
DTITLE=Vieux Farka Touré - The Secret
DYEAR=2011
DGENRE=Afro Blues
TTITLE0=Sokosondou
TTITLE1=Aigna (feat. Derek Trucks)
TTITLE2=All the same (feat. Dave Matthews)
TTITLE3=Ali
TTITLE4=Lakkal (Wazch Out) (feat. Erik Krasno)
TTITLE5=Wonda Guay
TTITLE6=The Secret (feat. Ali Farka Touré)
TTITLE7=Borei
TTITLE8=Sankare Diadje
TTITLE9=Gido (feat. John Scofield)
TTITLE10=Amana Quai
TTITLE11=Touri
EXTD=
EXTT0=Ali Farka Touré's son
EXTT1=
EXTT2=
EXTT3=
EXTT4=
EXTT5=
EXTT6=
EXTT7=
EXTT8=
EXTT9=
EXTT10=
EXTT11=
PLAYORDER=
